solid Untitled
facet normal -0.9850304671557043 -0.17238033175224818 0.0
  outer loop
    vertex 16343.701344172054 535.714285714286 600.000000000001
    vertex 16437.451344172056 0.0 0.0
    vertex 16437.451344172056 0.0 600.000000000001
  endloop
endfacet
facet normal -0.9850304671557043 -0.17238033175224818 0.0
  outer loop
    vertex 16437.451344172056 0.0 0.0
    vertex 16343.701344172054 535.714285714286 600.000000000001
    vertex 16343.701344172054 535.714285714286 449.9999999999999
  endloop
endfacet
facet normal -0.9850304671557043 -0.17238033175224818 0.0
  outer loop
    vertex 16437.451344172056 0.0 0.0
    vertex 16343.701344172054 535.714285714286 449.9999999999999
    vertex 13812.451344172057 14999.999999999996 0.0
  endloop
endfacet
facet normal -0.9850304671557043 -0.17238033175224818 0.0
  outer loop
    vertex 13812.451344172057 14999.999999999996 0.0
    vertex 16343.701344172054 535.714285714286 449.9999999999999
    vertex 13812.451344172057 14999.999999999996 449.9999999999999
  endloop
endfacet
facet normal 0.0 -1.0 0.0
  outer loop
    vertex 23187.451344172052 0.0 600.000000000001
    vertex 16437.451344172056 0.0 0.0
    vertex 23187.451344172052 0.0 0.0
  endloop
endfacet
facet normal 0.0 -1.0 0.0
  outer loop
    vertex 16437.451344172056 0.0 0.0
    vertex 23187.451344172052 0.0 600.000000000001
    vertex 16437.451344172056 0.0 600.000000000001
  endloop
endfacet
facet normal -8.0212379948029115e-16 1.0 0.0
  outer loop
    vertex 21012.451344172056 5999.999999999999 449.9999999999999
    vertex 22362.451344172056 6000.0 5.75273162439771e-13
    vertex 21012.451344172056 5999.999999999999 5.75273162439771e-13
  endloop
endfacet
facet normal -8.0212379948029115e-16 1.0 0.0
  outer loop
    vertex 22362.451344172056 6000.0 5.75273162439771e-13
    vertex 21012.451344172056 5999.999999999999 449.9999999999999
    vertex 22362.451344172056 6000.0 449.9999999999999
  endloop
endfacet
facet normal 0.0 0.0 1.0
  outer loop
    vertex 18312.451344172056 7499.999999999998 749.9999999999999
    vertex 21649.951344172052 9187.5 749.9999999999999
    vertex 17974.951344172056 9187.5 749.9999999999999
  endloop
endfacet
facet normal 0.0 0.0 1.0
  outer loop
    vertex 21649.951344172052 9187.5 749.9999999999999
    vertex 18312.451344172056 7499.999999999998 749.9999999999999
    vertex 21312.451344172052 7499.999999999998 749.9999999999999
  endloop
endfacet
facet normal 0.0 0.0 -1.0
  outer loop
    vertex 13812.451344172057 14999.999999999996 0.0
    vertex 17187.451344172056 7499.999999999998 5.75273162439771e-13
    vertex 16437.451344172056 0.0 0.0
  endloop
endfacet
facet normal 0.0 0.0 -1.0
  outer loop
    vertex 17187.451344172056 7499.999999999998 5.75273162439771e-13
    vertex 13812.451344172057 14999.999999999996 0.0
    vertex 25812.451344172052 14999.999999999996 0.0
  endloop
endfacet
facet normal 0.0 0.0 -1.0
  outer loop
    vertex 17187.451344172056 7499.999999999998 5.75273162439771e-13
    vertex 25812.451344172052 14999.999999999996 0.0
    vertex 18312.451344172056 7499.999999999998 5.75273162439771e-13
  endloop
endfacet
facet normal 0.0 0.0 -1.0
  outer loop
    vertex 18312.451344172056 7499.999999999998 5.75273162439771e-13
    vertex 25812.451344172052 14999.999999999996 0.0
    vertex 21312.451344172052 7499.999999999998 5.75273162439771e-13
  endloop
endfacet
facet normal 0.0 0.0 -1.0
  outer loop
    vertex 21312.451344172052 7499.999999999998 5.75273162439771e-13
    vertex 25812.451344172052 14999.999999999996 0.0
    vertex 22437.451344172056 7499.999999999998 5.75273162439771e-13
  endloop
endfacet
facet normal 0.0 0.0 -1.0
  outer loop
    vertex 22437.451344172056 7499.999999999998 5.75273162439771e-13
    vertex 25812.451344172052 14999.999999999996 0.0
    vertex 23187.451344172052 0.0 0.0
  endloop
endfacet
facet normal 0.0 0.0 -1.0
  outer loop
    vertex 16437.451344172056 0.0 0.0
    vertex 17262.451344172056 5999.999999999999 5.75273162439771e-13
    vertex 23187.451344172052 0.0 0.0
  endloop
endfacet
facet normal 0.0 0.0 -1.0
  outer loop
    vertex 17262.451344172056 5999.999999999999 5.75273162439771e-13
    vertex 16437.451344172056 0.0 0.0
    vertex 17187.451344172056 7499.999999999998 5.75273162439771e-13
  endloop
endfacet
facet normal 0.0 0.0 -1.0
  outer loop
    vertex 23187.451344172052 0.0 0.0
    vertex 17262.451344172056 5999.999999999999 5.75273162439771e-13
    vertex 18612.451344172056 5999.999999999999 5.75273162439771e-13
  endloop
endfacet
facet normal 0.0 0.0 -1.0
  outer loop
    vertex 23187.451344172052 0.0 0.0
    vertex 18612.451344172056 5999.999999999999 5.75273162439771e-13
    vertex 21012.451344172056 5999.999999999999 5.75273162439771e-13
  endloop
endfacet
facet normal 0.0 0.0 -1.0
  outer loop
    vertex 23187.451344172052 0.0 0.0
    vertex 21012.451344172056 5999.999999999999 5.75273162439771e-13
    vertex 22362.451344172056 6000.0 5.75273162439771e-13
  endloop
endfacet
facet normal 0.0 0.0 -1.0
  outer loop
    vertex 23187.451344172052 0.0 0.0
    vertex 22362.451344172056 6000.0 5.75273162439771e-13
    vertex 22437.451344172056 7499.999999999998 5.75273162439771e-13
  endloop
endfacet
facet normal 0.0 -1.0 0.0
  outer loop
    vertex 21649.951344172052 9187.5 899.9999999999998
    vertex 17974.951344172056 9187.5 749.9999999999999
    vertex 21649.951344172052 9187.5 749.9999999999999
  endloop
endfacet
facet normal 0.0 -1.0 0.0
  outer loop
    vertex 17974.951344172056 9187.5 749.9999999999999
    vertex 21649.951344172052 9187.5 899.9999999999998
    vertex 17974.951344172056 9187.5 899.9999999999998
  endloop
endfacet
facet normal -0.9805806756909202 -0.19611613513818396 0.0
  outer loop
    vertex 16962.451344172052 14249.999999999996 899.9999999999998
    vertex 17974.951344172056 9187.5 749.9999999999999
    vertex 17974.951344172056 9187.5 899.9999999999998
  endloop
endfacet
facet normal -0.9805806756909202 -0.19611613513818396 0.0
  outer loop
    vertex 17974.951344172056 9187.5 749.9999999999999
    vertex 18312.451344172056 7499.999999999998 449.9999999999999
    vertex 18312.451344172056 7499.999999999998 749.9999999999999
  endloop
endfacet
facet normal -0.9805806756909202 -0.19611613513818396 0.0
  outer loop
    vertex 18312.451344172056 7499.999999999998 449.9999999999999
    vertex 17974.951344172056 9187.5 749.9999999999999
    vertex 16962.451344172052 14249.999999999996 449.9999999999999
  endloop
endfacet
facet normal -0.9805806756909202 -0.19611613513818396 0.0
  outer loop
    vertex 16962.451344172052 14249.999999999996 449.9999999999999
    vertex 17974.951344172056 9187.5 749.9999999999999
    vertex 16962.451344172052 14249.999999999996 899.9999999999998
  endloop
endfacet
facet normal 0.0 0.0 1.0
  outer loop
    vertex 17974.951344172056 9187.5 899.9999999999998
    vertex 22662.451344172056 14249.999999999996 899.9999999999998
    vertex 16962.451344172052 14249.999999999996 899.9999999999998
  endloop
endfacet
facet normal 0.0 0.0 1.0
  outer loop
    vertex 22662.451344172056 14249.999999999996 899.9999999999998
    vertex 17974.951344172056 9187.5 899.9999999999998
    vertex 21649.951344172052 9187.5 899.9999999999998
  endloop
endfacet
facet normal -1.253648121843057e-33 5.002150542769399e-34 1.0
  outer loop
    vertex 16343.701344172054 535.714285714286 449.9999999999999
    vertex 17187.451344172056 7499.999999999998 449.9999999999999
    vertex 16962.451344172052 14249.999999999996 449.9999999999999
  endloop
endfacet
facet normal -1.253648121843057e-33 5.002150542769399e-34 1.0
  outer loop
    vertex 17187.451344172056 7499.999999999998 449.9999999999999
    vertex 16343.701344172054 535.714285714286 449.9999999999999
    vertex 17262.451344172056 5999.999999999999 449.9999999999999
  endloop
endfacet
facet normal -1.253648121843057e-33 5.002150542769399e-34 1.0
  outer loop
    vertex 17262.451344172056 5999.999999999999 449.9999999999999
    vertex 16343.701344172054 535.714285714286 449.9999999999999
    vertex 17508.879915600628 1071.428571428572 449.9999999999999
  endloop
endfacet
facet normal -1.253648121843057e-33 5.002150542769399e-34 1.0
  outer loop
    vertex 17262.451344172056 5999.999999999999 449.9999999999999
    vertex 17508.879915600628 1071.428571428572 449.9999999999999
    vertex 18612.451344172056 5999.999999999999 449.9999999999999
  endloop
endfacet
facet normal -1.253648121843057e-33 5.002150542769399e-34 1.0
  outer loop
    vertex 18612.451344172056 5999.999999999999 449.9999999999999
    vertex 17508.879915600628 1071.428571428572 449.9999999999999
    vertex 19598.165629886338 1071.4285714285716 449.9999999999999
  endloop
endfacet
facet normal -1.253648121843057e-33 5.002150542769399e-34 1.0
  outer loop
    vertex 18612.451344172056 5999.999999999999 449.9999999999999
    vertex 19598.165629886338 1071.4285714285716 449.9999999999999
    vertex 21012.451344172056 5999.999999999999 449.9999999999999
  endloop
endfacet
facet normal -1.253648121843057e-33 5.002150542769399e-34 1.0
  outer loop
    vertex 21012.451344172056 5999.999999999999 449.9999999999999
    vertex 19598.165629886338 1071.4285714285716 449.9999999999999
    vertex 20026.737058457766 1071.4285714285716 449.9999999999999
  endloop
endfacet
facet normal -1.253648121843057e-33 5.002150542769399e-34 1.0
  outer loop
    vertex 21012.451344172056 5999.999999999999 449.9999999999999
    vertex 20026.737058457766 1071.4285714285716 449.9999999999999
    vertex 22116.022772743483 1071.4285714285716 449.9999999999999
  endloop
endfacet
facet normal -1.253648121843057e-33 5.002150542769399e-34 1.0
  outer loop
    vertex 21012.451344172056 5999.999999999999 449.9999999999999
    vertex 22116.022772743483 1071.4285714285716 449.9999999999999
    vertex 22362.451344172056 6000.0 449.9999999999999
  endloop
endfacet
facet normal -1.253648121843057e-33 5.002150542769399e-34 1.0
  outer loop
    vertex 22362.451344172056 6000.0 449.9999999999999
    vertex 22116.022772743483 1071.4285714285716 449.9999999999999
    vertex 23281.201344172052 535.7142857142857 449.9999999999999
  endloop
endfacet
facet normal -1.253648121843057e-33 5.002150542769399e-34 1.0
  outer loop
    vertex 22362.451344172056 6000.0 449.9999999999999
    vertex 23281.201344172052 535.7142857142857 449.9999999999999
    vertex 22437.451344172056 7499.999999999998 449.9999999999999
  endloop
endfacet
facet normal -1.253648121843057e-33 5.002150542769399e-34 1.0
  outer loop
    vertex 22437.451344172056 7499.999999999998 449.9999999999999
    vertex 23281.201344172052 535.7142857142857 449.9999999999999
    vertex 22662.451344172056 14249.999999999996 449.9999999999999
  endloop
endfacet
facet normal -1.253648121843057e-33 5.002150542769399e-34 1.0
  outer loop
    vertex 13812.451344172057 14999.999999999996 449.9999999999999
    vertex 16962.451344172052 14249.999999999996 449.9999999999999
    vertex 25812.451344172052 14999.999999999996 449.9999999999999
  endloop
endfacet
facet normal -1.253648121843057e-33 5.002150542769399e-34 1.0
  outer loop
    vertex 16962.451344172052 14249.999999999996 449.9999999999999
    vertex 13812.451344172057 14999.999999999996 449.9999999999999
    vertex 16343.701344172054 535.714285714286 449.9999999999999
  endloop
endfacet
facet normal -1.253648121843057e-33 5.002150542769399e-34 1.0
  outer loop
    vertex 25812.451344172052 14999.999999999996 449.9999999999999
    vertex 16962.451344172052 14249.999999999996 449.9999999999999
    vertex 22662.451344172056 14249.999999999996 449.9999999999999
  endloop
endfacet
facet normal -1.253648121843057e-33 5.002150542769399e-34 1.0
  outer loop
    vertex 25812.451344172052 14999.999999999996 449.9999999999999
    vertex 22662.451344172056 14249.999999999996 449.9999999999999
    vertex 23281.201344172052 535.7142857142857 449.9999999999999
  endloop
endfacet
facet normal -1.253648121843057e-33 5.002150542769399e-34 1.0
  outer loop
    vertex 22662.451344172056 14249.999999999996 449.9999999999999
    vertex 21312.451344172052 7499.999999999998 449.9999999999999
    vertex 22437.451344172056 7499.999999999998 449.9999999999999
  endloop
endfacet
facet normal -1.253648121843057e-33 5.002150542769399e-34 1.0
  outer loop
    vertex 18312.451344172056 7499.999999999998 449.9999999999999
    vertex 16962.451344172052 14249.999999999996 449.9999999999999
    vertex 17187.451344172056 7499.999999999998 449.9999999999999
  endloop
endfacet
facet normal 0.41773321163142135 0.9085697352983415 0.0
  outer loop
    vertex 22116.022772743483 1071.4285714285716 600.000000000001
    vertex 23281.201344172052 535.7142857142857 449.9999999999999
    vertex 22116.022772743483 1071.4285714285716 449.9999999999999
  endloop
endfacet
facet normal 0.41773321163142135 0.9085697352983415 0.0
  outer loop
    vertex 23281.201344172052 535.7142857142857 449.9999999999999
    vertex 22116.022772743483 1071.4285714285716 600.000000000001
    vertex 23281.201344172052 535.7142857142857 600.000000000001
  endloop
endfacet
facet normal 0.0 1.0 0.0
  outer loop
    vertex 18612.451344172056 5999.999999999999 449.9999999999999
    vertex 21012.451344172056 5999.999999999999 5.75273162439771e-13
    vertex 18612.451344172056 5999.999999999999 5.75273162439771e-13
  endloop
endfacet
facet normal 0.0 1.0 0.0
  outer loop
    vertex 21012.451344172056 5999.999999999999 5.75273162439771e-13
    vertex 18612.451344172056 5999.999999999999 449.9999999999999
    vertex 21012.451344172056 5999.999999999999 449.9999999999999
  endloop
endfacet
facet normal 0.0 0.0 1.0
  outer loop
    vertex 16437.451344172056 0.0 600.000000000001
    vertex 17508.879915600628 1071.428571428572 600.000000000001
    vertex 16343.701344172054 535.714285714286 600.000000000001
  endloop
endfacet
facet normal 0.0 0.0 1.0
  outer loop
    vertex 17508.879915600628 1071.428571428572 600.000000000001
    vertex 16437.451344172056 0.0 600.000000000001
    vertex 23187.451344172052 0.0 600.000000000001
  endloop
endfacet
facet normal 0.0 0.0 1.0
  outer loop
    vertex 17508.879915600628 1071.428571428572 600.000000000001
    vertex 23187.451344172052 0.0 600.000000000001
    vertex 19598.165629886338 1071.4285714285716 600.000000000001
  endloop
endfacet
facet normal 0.0 0.0 1.0
  outer loop
    vertex 19598.165629886338 1071.4285714285716 600.000000000001
    vertex 23187.451344172052 0.0 600.000000000001
    vertex 20026.737058457766 1071.4285714285716 600.000000000001
  endloop
endfacet
facet normal 0.0 0.0 1.0
  outer loop
    vertex 20026.737058457766 1071.4285714285716 600.000000000001
    vertex 23187.451344172052 0.0 600.000000000001
    vertex 22116.022772743483 1071.4285714285716 600.000000000001
  endloop
endfacet
facet normal 0.0 0.0 1.0
  outer loop
    vertex 22116.022772743483 1071.4285714285716 600.000000000001
    vertex 23187.451344172052 0.0 600.000000000001
    vertex 23281.201344172052 535.7142857142857 600.000000000001
  endloop
endfacet
facet normal 0.9987523388778446 0.04993761694389245 0.0
  outer loop
    vertex 17187.451344172056 7499.999999999998 5.75273162439771e-13
    vertex 17262.451344172056 5999.999999999999 449.9999999999999
    vertex 17262.451344172056 5999.999999999999 5.75273162439771e-13
  endloop
endfacet
facet normal 0.9987523388778446 0.04993761694389245 0.0
  outer loop
    vertex 17262.451344172056 5999.999999999999 449.9999999999999
    vertex 17187.451344172056 7499.999999999998 5.75273162439771e-13
    vertex 17187.451344172056 7499.999999999998 449.9999999999999
  endloop
endfacet
facet normal 9.625485593763493e-16 -1.0 0.0
  outer loop
    vertex 18312.451344172056 7499.999999999998 449.9999999999999
    vertex 17187.451344172056 7499.999999999998 5.75273162439771e-13
    vertex 18312.451344172056 7499.999999999998 5.75273162439771e-13
  endloop
endfacet
facet normal 9.625485593763493e-16 -1.0 0.0
  outer loop
    vertex 17187.451344172056 7499.999999999998 5.75273162439771e-13
    vertex 18312.451344172056 7499.999999999998 449.9999999999999
    vertex 17187.451344172056 7499.999999999998 449.9999999999999
  endloop
endfacet
facet normal 0.0 1.0 0.0
  outer loop
    vertex 17262.451344172056 5999.999999999999 449.9999999999999
    vertex 18612.451344172056 5999.999999999999 5.75273162439771e-13
    vertex 17262.451344172056 5999.999999999999 5.75273162439771e-13
  endloop
endfacet
facet normal 0.0 1.0 0.0
  outer loop
    vertex 18612.451344172056 5999.999999999999 5.75273162439771e-13
    vertex 17262.451344172056 5999.999999999999 449.9999999999999
    vertex 18612.451344172056 5999.999999999999 449.9999999999999
  endloop
endfacet
facet normal 0.0 1.0 0.0
  outer loop
    vertex 16962.451344172052 14249.999999999996 899.9999999999998
    vertex 22662.451344172056 14249.999999999996 449.9999999999999
    vertex 16962.451344172052 14249.999999999996 449.9999999999999
  endloop
endfacet
facet normal 0.0 1.0 0.0
  outer loop
    vertex 22662.451344172056 14249.999999999996 449.9999999999999
    vertex 16962.451344172052 14249.999999999996 899.9999999999998
    vertex 22662.451344172056 14249.999999999996 899.9999999999998
  endloop
endfacet
facet normal -9.625485593763493e-16 -1.0 0.0
  outer loop
    vertex 22437.451344172056 7499.999999999998 449.9999999999999
    vertex 21312.451344172052 7499.999999999998 5.75273162439771e-13
    vertex 22437.451344172056 7499.999999999998 5.75273162439771e-13
  endloop
endfacet
facet normal -9.625485593763493e-16 -1.0 0.0
  outer loop
    vertex 21312.451344172052 7499.999999999998 5.75273162439771e-13
    vertex 22437.451344172056 7499.999999999998 449.9999999999999
    vertex 21312.451344172052 7499.999999999998 449.9999999999999
  endloop
endfacet
facet normal 0.9850304671557043 -0.17238033175224818 0.0
  outer loop
    vertex 23187.451344172052 0.0 0.0
    vertex 23281.201344172052 535.7142857142857 449.9999999999999
    vertex 23187.451344172052 0.0 600.000000000001
  endloop
endfacet
facet normal 0.9850304671557043 -0.17238033175224818 0.0
  outer loop
    vertex 23281.201344172052 535.7142857142857 449.9999999999999
    vertex 23187.451344172052 0.0 0.0
    vertex 25812.451344172052 14999.999999999996 0.0
  endloop
endfacet
facet normal 0.9850304671557043 -0.17238033175224818 0.0
  outer loop
    vertex 23281.201344172052 535.7142857142857 449.9999999999999
    vertex 25812.451344172052 14999.999999999996 0.0
    vertex 25812.451344172052 14999.999999999996 449.9999999999999
  endloop
endfacet
facet normal 0.9850304671557043 -0.17238033175224818 0.0
  outer loop
    vertex 23281.201344172052 535.7142857142857 600.000000000001
    vertex 23187.451344172052 0.0 600.000000000001
    vertex 23281.201344172052 535.7142857142857 449.9999999999999
  endloop
endfacet
facet normal 0.0 -1.0 0.0
  outer loop
    vertex 21312.451344172052 7499.999999999998 449.9999999999999
    vertex 18312.451344172056 7499.999999999998 5.75273162439771e-13
    vertex 21312.451344172052 7499.999999999998 5.75273162439771e-13
  endloop
endfacet
facet normal 0.0 -1.0 0.0
  outer loop
    vertex 18312.451344172056 7499.999999999998 5.75273162439771e-13
    vertex 21312.451344172052 7499.999999999998 449.9999999999999
    vertex 18312.451344172056 7499.999999999998 449.9999999999999
  endloop
endfacet
facet normal 0.0 -1.0 0.0
  outer loop
    vertex 18312.451344172056 7499.999999999998 449.9999999999999
    vertex 21312.451344172052 7499.999999999998 449.9999999999999
    vertex 21312.451344172052 7499.999999999998 749.9999999999999
  endloop
endfacet
facet normal 0.0 -1.0 0.0
  outer loop
    vertex 18312.451344172056 7499.999999999998 449.9999999999999
    vertex 21312.451344172052 7499.999999999998 749.9999999999999
    vertex 18312.451344172056 7499.999999999998 749.9999999999999
  endloop
endfacet
facet normal 0.0 1.0 0.0
  outer loop
    vertex 13812.451344172057 14999.999999999996 449.9999999999999
    vertex 25812.451344172052 14999.999999999996 0.0
    vertex 13812.451344172057 14999.999999999996 0.0
  endloop
endfacet
facet normal 0.0 1.0 0.0
  outer loop
    vertex 25812.451344172052 14999.999999999996 0.0
    vertex 13812.451344172057 14999.999999999996 449.9999999999999
    vertex 25812.451344172052 14999.999999999996 449.9999999999999
  endloop
endfacet
facet normal -0.4177332116314215 0.9085697352983413 0.0
  outer loop
    vertex 16343.701344172054 535.714285714286 600.000000000001
    vertex 17508.879915600628 1071.428571428572 449.9999999999999
    vertex 16343.701344172054 535.714285714286 449.9999999999999
  endloop
endfacet
facet normal -0.4177332116314215 0.9085697352983413 0.0
  outer loop
    vertex 17508.879915600628 1071.428571428572 449.9999999999999
    vertex 16343.701344172054 535.714285714286 600.000000000001
    vertex 17508.879915600628 1071.428571428572 600.000000000001
  endloop
endfacet
facet normal 1.943607667971474e-16 1.0 0.0
  outer loop
    vertex 17508.879915600628 1071.428571428572 600.000000000001
    vertex 19598.165629886338 1071.4285714285716 449.9999999999999
    vertex 17508.879915600628 1071.428571428572 449.9999999999999
  endloop
endfacet
facet normal 1.943607667971474e-16 1.0 0.0
  outer loop
    vertex 19598.165629886338 1071.4285714285716 449.9999999999999
    vertex 17508.879915600628 1071.428571428572 600.000000000001
    vertex 19598.165629886338 1071.4285714285716 600.000000000001
  endloop
endfacet
facet normal -0.9987523388778446 0.04993761694389249 0.0
  outer loop
    vertex 22437.451344172056 7499.999999999998 449.9999999999999
    vertex 22362.451344172056 6000.0 5.75273162439771e-13
    vertex 22362.451344172056 6000.0 449.9999999999999
  endloop
endfacet
facet normal -0.9987523388778446 0.04993761694389249 0.0
  outer loop
    vertex 22362.451344172056 6000.0 5.75273162439771e-13
    vertex 22437.451344172056 7499.999999999998 449.9999999999999
    vertex 22437.451344172056 7499.999999999998 5.75273162439771e-13
  endloop
endfacet
facet normal 3.158362460453645e-16 1.0 0.0
  outer loop
    vertex 19598.165629886338 1071.4285714285716 600.000000000001
    vertex 20026.737058457766 1071.4285714285716 449.9999999999999
    vertex 19598.165629886338 1071.4285714285716 449.9999999999999
  endloop
endfacet
facet normal 3.158362460453645e-16 1.0 0.0
  outer loop
    vertex 20026.737058457766 1071.4285714285716 449.9999999999999
    vertex 19598.165629886338 1071.4285714285716 600.000000000001
    vertex 20026.737058457766 1071.4285714285716 600.000000000001
  endloop
endfacet
facet normal 0.9805806756909202 -0.19611613513818418 0.0
  outer loop
    vertex 22662.451344172056 14249.999999999996 449.9999999999999
    vertex 21312.451344172052 7499.999999999998 749.9999999999999
    vertex 21312.451344172052 7499.999999999998 449.9999999999999
  endloop
endfacet
facet normal 0.9805806756909202 -0.19611613513818418 0.0
  outer loop
    vertex 21312.451344172052 7499.999999999998 749.9999999999999
    vertex 22662.451344172056 14249.999999999996 449.9999999999999
    vertex 21649.951344172052 9187.5 749.9999999999999
  endloop
endfacet
facet normal 0.9805806756909202 -0.19611613513818418 0.0
  outer loop
    vertex 21649.951344172052 9187.5 749.9999999999999
    vertex 22662.451344172056 14249.999999999996 449.9999999999999
    vertex 21649.951344172052 9187.5 899.9999999999998
  endloop
endfacet
facet normal 0.9805806756909202 -0.19611613513818418 0.0
  outer loop
    vertex 21649.951344172052 9187.5 899.9999999999998
    vertex 22662.451344172056 14249.999999999996 449.9999999999999
    vertex 22662.451344172056 14249.999999999996 899.9999999999998
  endloop
endfacet
facet normal 0.0 1.0 0.0
  outer loop
    vertex 20026.737058457766 1071.4285714285716 600.000000000001
    vertex 22116.022772743483 1071.4285714285716 449.9999999999999
    vertex 20026.737058457766 1071.4285714285716 449.9999999999999
  endloop
endfacet
facet normal 0.0 1.0 0.0
  outer loop
    vertex 22116.022772743483 1071.4285714285716 449.9999999999999
    vertex 20026.737058457766 1071.4285714285716 600.000000000001
    vertex 22116.022772743483 1071.4285714285716 600.000000000001
  endloop
endfacet
endsolid Untitled
